<?xml version="1.0" encoding="UTF-8"?>
<svg width="752pt" height="752pt" version="1.1" viewBox="0 0 752 752" xmlns="http://www.w3.org/2000/svg">
 <g>
  <path d="m376 162.89c-117.49 0-213.11 95.617-213.11 213.11 0 117.5 95.617 213.11 213.11 213.11s213.11-95.617 213.11-213.11c-0.003907-117.49-95.621-213.11-213.12-213.11zm0 340.98c-70.516 0-127.87-57.352-127.87-127.87s57.352-127.87 127.87-127.87 127.87 57.352 127.87 127.87c0 70.52-57.348 127.87-127.87 127.87zm96.801-238.07c-23.633-20.789-53.988-34.098-87.328-36.277v-47.453c46.41 2.2266 88.605 20.836 120.91 50.152zm-106.27-36.277c-33.34 2.1328-63.695 15.438-87.375 36.277l-33.531-33.531c32.297-29.363 74.492-47.973 120.91-50.199zm-100.73 49.68c-20.789 23.633-34.098 53.988-36.277 87.375h-47.453c2.2266-46.41 20.836-88.605 50.152-120.91zm-36.277 106.27c2.1328 33.34 15.438 63.695 36.277 87.375l-33.531 33.531c-29.363-32.301-47.973-74.496-50.199-120.91zm49.68 100.73c23.633 20.789 53.988 34.098 87.328 36.277v47.453c-46.41-2.2266-88.605-20.836-120.91-50.152zm106.27 36.277c33.34-2.1328 63.695-15.438 87.328-36.23l33.531 33.531c-32.254 29.312-74.449 47.926-120.86 50.152zm100.73-49.633c20.789-23.633 34.098-53.988 36.277-87.375h47.453c-2.2266 46.41-20.836 88.605-50.152 120.91zm36.277-106.32c-2.1328-33.34-15.438-63.695-36.277-87.375l33.531-33.531c29.363 32.297 47.973 74.496 50.199 120.91z"/>
  <path d="m429.28 434.91-23.68-18.941c-3.457-2.7461-8.3828-2.7461-11.84 0l-8.2852 6.6289v-31.258l32.629-16.34c3.2227-1.6055 5.2578-4.875 5.2578-8.4727v-56.832c0-3.5977-2.0352-6.8672-5.2578-8.4766l-37.887-18.941c-2.6523-1.3242-5.8242-1.3242-8.4766 0l-37.887 18.941c-3.1719 1.6094-5.207 4.8789-5.207 8.4766v56.828c0 3.5977 2.0352 6.8672 5.2578 8.4766l32.629 16.34v31.258l-8.2891-6.6289c-3.457-2.7461-8.3828-2.7461-11.84 0l-23.68 18.941c-4.0742 3.2695-4.7344 9.2344-1.4688 13.309 3.2695 4.0742 9.2344 4.7344 13.309 1.4688l17.758-14.207 17.617 14.113 0.14062 0.09375c0.046875 0.046875 0.09375 0.046875 0.14062 0.09375 0.75781 0.61719 1.6094 1.043 2.5117 1.375 0.09375 0.046875 0.1875 0.09375 0.28516 0.14062 0.89844 0.28516 1.8008 0.42578 2.6992 0.47266 0.09375 0 0.1875 0.046874 0.28516 0.046874s0.23828-0.046874 0.33203-0.046874c0.42578 0 0.80469-0.046876 1.2305-0.14063 0.23828-0.046874 0.47266-0.046874 0.71094-0.14062 0.42578-0.09375 0.80469-0.23828 1.2305-0.42578 0.23828-0.09375 0.42578-0.14062 0.66406-0.23828 0.42578-0.1875 0.80469-0.47266 1.2305-0.75781 0.1875-0.09375 0.37891-0.1875 0.51953-0.33203h0.046875l17.758-14.207 17.758 14.207c1.7109 1.375 3.7969 2.0352 5.8789 2.0352 2.793 0 5.5391-1.2305 7.3867-3.5508 3.2695-4.0742 2.6055-10.039-1.4688-13.309zm-81.691-119.34 28.414-14.207 28.414 14.207v45.133l-28.414 14.207-28.414-14.207z"/>
 </g>
</svg>
