<?xml version="1.0" encoding="UTF-8"?>
<svg width="752pt" height="752pt" version="1.1" viewBox="0 0 752 752" xmlns="http://www.w3.org/2000/svg">
 <g>
  <path d="m206.53 347.86c9.3359 0 21.246-1.6289 35.75-5.1641-9.3594 14.188-14.742 30.02-13.77 42.32 1.0273 12.934 8.6289 21.578 20.883 23.715 0.98438 0.17188 1.9805 0.26172 2.9766 0.26172 6.668 0 13.422-3.8555 19.441-9.7266 3.8516 4.7383 9.1953 8.0547 16.141 9.2617 1.2422 0.21484 2.457 0.33203 3.6719 0.33203 13.73 0 25.727-13.789 31.188-36.391 2.4414-10.16 15.48-21.969 32.43-29.395 0.16016-0.070313 0.25781-0.20703 0.40625-0.28906 4.6562 0.20703 9.3203 0.41797 13.77 0.41797 2.5742 0 5.0312-0.097656 7.4961-0.1875-9.4727 25.988-7.1562 60.785 6.7812 77.105 5.2734 6.1875 12.012 9.3789 19.336 9.3789 3.5117 0 7.1523-0.73828 10.824-2.2109 6.2891-2.5508 10.488-7.8008 12.699-14.793 1.5391 1.2578 3.0898 2.4688 4.7891 3.2734 2.9336 1.4023 6.0547 2.0938 9.3516 2.0938 3.4414 0 7.0664-0.76562 10.84-2.2852 14.336-5.8086 18.484-25.074 10.551-49.051-2.4766-7.5391 0.83984-18.207 8.6445-28.801 2.1289 0.035157 4.2422 0.17188 6.3047 0.45313 25.676 4.3281 41.164 12.945 46.059 25.633 9.957 25.855-22.387 66.758-41.723 91.211-12.602 15.941-17.328 21.91-15.855 28.051 0.53516 2.2266 2.0664 4.0742 4.1328 5.0156 0.98437 0.44922 2.0234 0.66406 3.0625 0.66406 1.1836 0 2.3555-0.28906 3.4414-0.85156 49.125-25.754 116.76-88.219 105.88-140.46-8.2109-39.426-57.797-62.723-147.41-69.242-50.84-3.6836-103.18-4.7969-153.8-5.8672l-7.7695-0.16797c-18.84-20.762-56.211 0.15625-74.641 10.52-22.82 12.82-34.469 33.242-27.707 48.531 3.2969 7.4258 12.141 16.648 35.828 16.648zm101.89 21.145c-4.2344 17.516-12.387 25.77-17.906 24.961-4.7227-0.83203-7.5664-3.1367-9.0273-7 3.7852-6.2188 6.8203-13.117 8.4922-20.039 2.0938-8.6914 23.297-21.922 38.25-24.871-9.4375 7.3438-17.289 16.516-19.809 26.949zm139.63 2.168c5.6523 17.098 3.1641 28.574-2.0508 30.684-4.5977 1.8789-6.9375 1.1992-8.2969 0.55078-3.0938-1.4609-7.7773-6.418-12.516-21.723-0.039062-0.12891-0.14062-0.21875-0.1875-0.34375-0.21484-0.71094-0.33984-1.3789-0.57812-2.0977-2.0664-6.3008 1.1836-19.539 11.199-32.43 1.6289-1.5078 8.1836-4.1406 16.508-6-5.543 11.113-7.1328 22.098-4.0781 31.359zm-242.37-75.602c14.234-7.9922 47.535-26.797 57.781-11.91 0.10547 0.15625 0.27344 0.23438 0.39062 0.37891 0.33984 0.42969 0.73047 0.78516 1.1562 1.1289 0.34375 0.27734 0.67188 0.53516 1.0508 0.74219 0.41797 0.23047 0.85547 0.375 1.3164 0.52344 0.48438 0.15234 0.95312 0.27734 1.4609 0.32812 0.19531 0.019531 0.36328 0.12109 0.5625 0.125l11.098 0.23047c50.438 1.082 102.59 2.1836 153.05 5.8516 81.062 5.8828 127.4 25.77 134 57.492 6.8945 33.152-29.34 76.035-67.363 104.56 21.113-27.199 48.328-66.379 36.711-96.527-6.8945-17.922-26.246-29.684-57.508-34.934-0.042969-0.007812-0.082031 0.011719-0.12109 0.003906-0.035156-0.003906-0.058593-0.027344-0.09375-0.03125-20.566-2.8633-48.895 5.043-55.035 12.949-12.398 15.926-17.805 34.137-13.773 46.395 5.6523 17.098 3.1641 28.574-2.0508 30.684-5.5508 2.2383-9.6562 1.2852-13.355-3.0508-11.027-12.906-12.891-50.121 0.23047-71.961 0.16797-0.28125 0.1875-0.59766 0.31641-0.89062 0.20313-0.46484 0.39844-0.91406 0.50391-1.418 0.10938-0.51563 0.11328-1.0117 0.10938-1.5273 0-0.3125 0.10547-0.60156 0.066406-0.91797-0.019531-0.14062-0.10938-0.25391-0.13281-0.39062-0.10156-0.55078-0.31641-1.0469-0.53906-1.5625-0.16406-0.37109-0.28906-0.75-0.50781-1.0859-0.28125-0.4375-0.65625-0.78516-1.0312-1.1602-0.32422-0.32422-0.62109-0.65234-1-0.91406-0.12109-0.082032-0.1875-0.21094-0.31641-0.28906-0.26953-0.15625-0.57031-0.17578-0.84766-0.29688-0.52344-0.24219-1.0312-0.44531-1.5938-0.55469-0.38281-0.070313-0.75-0.058594-1.1328-0.070313-0.39844-0.011718-0.77734-0.13281-1.1797-0.074218-15.031 1.9375-35.812 0.67969-54.168-0.78125-0.09375-0.007813-0.17969 0.039062-0.27734 0.035156-0.10938-0.003906-0.20313-0.0625-0.31641-0.0625h-0.16016c-18.324 0.375-52.926 18.371-57.406 36.855-4.4062 18.297-18.195 31.578-23.645 30.727-3.7148-0.64844-8.0508-2.4141-8.6719-10.32-1.5156-19.238 19.078-51.828 43.039-60.066 3.875-1.3281 5.9258-5.5352 4.5977-9.3945-1.3281-3.875-5.5195-5.9258-9.3945-4.5977-7.543 2.5938-14.656 6.9531-21.105 12.363-53.324 17.5-73.004 10.23-76.16 3.0703-3.0117-6.8086 4.8789-20.348 21.441-29.656z"/>
  <path d="m236.1 304.36c0.59375 0.73828 1.4727 1.1836 2.3711 1.6172 0.88281 0.30469 1.7773 0.59375 2.8047 0.59375 1.0391 0 1.9375-0.28906 2.8164-0.59375 0.88281-0.43359 1.6328-0.88281 2.3711-1.6172 1.4727-1.3438 2.2109-3.2656 2.2109-5.1875 0-1.0273-0.14453-1.9219-0.59375-2.9609-0.43359-0.88281-0.88281-1.6172-1.6172-2.3555-2.082-2.082-5.332-2.6719-7.9922-1.6328-0.89453 0.44922-1.7773 1.0391-2.3711 1.6328-0.73437 0.73438-1.3281 1.4727-1.6328 2.3555-0.43359 1.0391-0.59375 1.9375-0.59375 2.9609 0 0.89453 0.16016 1.9219 0.59375 2.8164 0.30469 0.88281 0.89844 1.6211 1.6328 2.3711z"/>
 </g>
</svg>
