<?xml version="1.0" encoding="UTF-8"?>
<svg width="752pt" height="752pt" version="1.1" viewBox="0 0 752 752" xmlns="http://www.w3.org/2000/svg">
 <path d="m513.78 411.06c21.395-8.7617 35.73-24.578 52.766-37.695 25.594 54.391-18.484 98.707-49 130.05-8.7617 8.9961-19.18 17.277-28.27 24.496-15.203 12.09-31.332 23.598-47.109 32.039-22.637 12.105-62.555 24.988-90.469 16.957-12.602-3.6211-24.723-6.7656-33.121-11.137-7.3711-3.832-18.566-12.891-23.422-20.906-29.926-49.371-45.391-137.8-73.5-188.47-17.395 3.3359-21.387 20.082-35.812 26.387-15.266-75.035 39.98-115.12 90.469-154.54 15.281-11.938 34.98-22.637 50.891-30.152 22.379-10.594 59.961-31.18 84.812-22.621 40.289 13.887 57.691 94.852 69.73 150.78 7.7227 35.902 3.5469 72.117 32.035 84.824zm-35.812-41.461c-1.5195-6.7148-5.2383-18.711-7.5742-27.625-5.4297-20.805-9.6914-47.094-16.922-70.379-10.734-34.59-28.871-80.254-52.766-84.812-0.97656-0.17969-3.2422-2.0781-3.7734-1.8828-64.527 23.891-148.34 65.109-190.36 120.62 41.695 58.191 64.391 135.38 92.352 207.31 13.102 18.922 24.23 43.629 54.652 47.117 8.0977-12.383 5.8359-35.641 1.8828-50.883 45.559-31.082 101.43-51.855 143.23-86.695-11.285-12.336-15.344-29.164-20.727-52.77zm-284.59-3.7734c6.5312-7.2891 13.781-13.859 24.504-16.965-5.2773-12.309-8.5273-26.645-20.73-32.039-2.7852 14.773-9.4453 33.719-3.7734 49.004zm363.75 26.387c-57.754 48.426-117.1 95.238-192.24 126.27 8.1953 13.762-2.3438 32.773 1.8906 47.109 90.008-13.02 135.71-70.336 190.36-118.73 2.4805-19.738 14.945-44.449 0-60.316-0.007813 1.8867-0.007813 3.7773-0.007813 5.6602z" fill-rule="evenodd"/>
</svg>
