<?xml version="1.0" encoding="UTF-8"?>
<svg width="752pt" height="752pt" version="1.1" viewBox="0 0 752 752" xmlns="http://www.w3.org/2000/svg">
 <path d="m529.16 354.5-0.37891-10.418c-0.23828-7.9023-1.6562-15.723-4.2148-23.207-0.15234-1.3086-0.58984-2.5664-1.2773-3.6914l-0.28516-0.47266c-5.4453-13.395-14.453-25.039-26.047-33.672l-0.56641-0.42578c-1.8477-1.3242-3.6953-2.6523-5.6836-3.8359l-116.79-71.039c-14.094-8.6211-30.633-12.367-47.066-10.656-16.434 1.7148-31.848 8.7852-43.863 20.129l-33.812 32.203c-7.6016 7.25-13.828 15.816-18.375 25.289-0.53125 0.64062-0.96094 1.3594-1.2773 2.1289 0 0.47266-0.23828 0.94531-0.37891 1.4219-7.3867 17.047-9.2266 35.984-5.2578 54.129 14.777 65.973 33.719 148.09 40.207 164.76 5.0664 12.785 22.875 27.75 54.414 45.797v-0.003906c24.242 13.938 53.422 16.402 79.656 6.7266 100.97-36.988 109.78-49.301 112.71-53.375 22.16-30.309 19.984-91.871 18.277-141.79zm-267.57-92.156 33.906-32.109c9.1172-8.6484 20.828-14.059 33.32-15.395 12.496-1.3359 25.086 1.4805 35.824 8.0039l116.69 71.277c1.6094 0.99609 3.125 2.1328 4.7344 3.2188l3.2188 3.3633h0.003906c0.13672 0.21484 0.13672 0.49219 0 0.71094-0.011719 0.23047-0.13281 0.44141-0.33203 0.56641l-4.0742 2.2266-80.457 41.957c-1.9453 1.043-3.8281 2.1953-5.6367 3.457l-7.5312 4.7344v0.003906c-0.89453 0.56641-2.0391 0.56641-2.9336 0l-9.4727-6.1094c-1.6758-1.0586-3.4141-2.0078-5.2109-2.8438l-125.5-57.68c-1.3125-0.65234-2.1016-2.0391-1.9883-3.5039 0.42578-0.66406 0.76172-1.3789 0.99609-2.1328 3.6211-7.375 8.5117-14.062 14.445-19.746zm19.227 228.17c-4.7344-11.98-18.941-71.039-39.355-162.06-1.7539-8.043-2.0781-16.328-0.94531-24.484l125.36 57.543c0.88281 0.39844 1.7344 0.85938 2.5586 1.3711l0.61719 0.37891h-0.003907c5.1953 3.4219 8.9258 8.6562 10.469 14.68 0 0.85156-0.42578 1.7031-0.56641 2.5586l-26.145 155.81c-8.8984-1.4023-17.477-4.3672-25.336-8.7617-37.414-21.594-45.086-33.148-46.648-37.035zm215.57-4.7344c-0.89844 1.2305-11.508 12.977-104.43 47.359-6.7852 2.4375-13.879 3.918-21.074 4.4023l25.953-153.96c0-0.51953 0.23828-0.99609 0.33203-1.5156 0.36328-0.80859 0.58594-1.6719 0.66016-2.5547 1.9414-5.9336 5.6836-11.117 10.703-14.824l3.6484-2.1797 0.66406-0.47266 74.543-38.785c0.28516 0 0.61719 0 0.94531-0.37891l5.0195-2.7461 8.0039-4.168 5.3047 8.5234c2.4883 6.4492 3.8984 13.266 4.1641 20.172l0.33203 10.465c1.5625 44.566 3.6953 105.38-14.773 130.57zm-154.34 36.277c-3.9258 0-7.1055-3.1797-7.1055-7.1055 0-3.9219 3.1797-7.1016 7.1055-7.1016 3.9219 0 7.1016 3.1797 7.1016 7.1016 0 3.9258-3.1797 7.1055-7.1016 7.1055zm4.7344-22.922c-2.6172 0-4.7344-2.1211-4.7344-4.7344 0-2.6172 2.1172-4.7383 4.7344-4.7383 2.6172 0.027344 4.7148 2.168 4.6875 4.7852-0.023438 2.6133-2.168 4.7148-4.7812 4.6875z"/>
</svg>
