<?xml version="1.0" encoding="UTF-8"?>
<svg width="752pt" height="752pt" version="1.1" viewBox="0 0 752 752" xmlns="http://www.w3.org/2000/svg">
 <path d="m345.13 428.77c0.95703 0.37109 1.9844 0.54688 3 0.53906l36.156-0.58203 4.3398 13.414c-0.82031 0.21484-1.6367 0.45312-2.4492 0.71875-28.41 9.1953-42.219 45.438-30.781 80.789 6.3086 19.586 19.215 35.574 35.41 43.859 7.5117 3.8477 15.438 5.7969 23.191 5.7969 4.668 0 9.2773-0.70313 13.688-2.1367 28.402-9.2031 42.215-45.445 30.785-80.781l-15.141-47.098 47.02 15.184c8.375 2.707 16.93 4.0625 25.266 4.0625 8.3906 0 16.559-1.3711 24.094-4.1094 15.73-5.7109 26.914-16.641 31.48-30.777 4.5664-14.145 1.8906-29.543-7.5234-43.379-9-13.227-23.203-23.492-40-28.914-16.805-5.4258-34.332-5.4102-49.367 0.046875-15.73 5.7109-26.91 16.641-31.477 30.777-0.25391 0.79297-0.48828 1.6016-0.69922 2.4141l-13.402-4.3281 0.59766-36.168c0.015626-1.0234-0.16406-2.043-0.53906-3-2.3281-5.9727-57.664-146.38-111.76-165.95-2.8164-1.0078-6-0.34375-8.1719 1.75-2.1641 2.0898-2.9531 5.2344-2.0273 8.1016l56.285 174.08-174.14-56.238c-2.8516-0.94141-6.0078-0.14063-8.1055 2.0273-2.0938 2.1719-2.7656 5.3398-1.7383 8.1797 19.648 54.07 160.04 109.4 166.01 111.73zm98.312 66.461c8.7578 27.07-0.49609 54.402-20.621 60.926-7.8398 2.5352-16.418 1.6016-24.824-2.6992-12.492-6.3906-22.543-19.023-27.578-34.656-8.7617-27.078 0.48828-54.402 20.613-60.926 2.6562-0.85547 5.3828-1.3086 8.1133-1.3477 2.5039-0.039063 4.8398-1.2656 6.2969-3.3008 1.457-2.0352 1.8672-4.6406 1.0898-7.0234l-5.3438-16.523 23.641 7.6328zm-114.93-290.46c34.727 30.738 71.477 110.4 85 144.63l-0.49219 29.793-31.383-10.137zm117.7 201.73c2.3633 0.79297 4.9609 0.37891 6.9922-1.0703 2.0312-1.4414 3.2656-3.7539 3.3203-6.2422 0.074218-2.9375 0.50781-5.6055 1.3281-8.1484 3.0312-9.3945 10.793-16.781 21.84-20.797 11.746-4.2695 25.641-4.2227 39.125 0.13281 13.473 4.3555 24.77 12.441 31.805 22.777 6.6133 9.7188 8.5859 20.25 5.5508 29.645-3.0312 9.3945-10.793 16.781-21.844 20.797-11.746 4.2617-25.645 4.2148-39.121-0.13281l-60.934-19.68c-0.03125-0.015625-0.0625-0.015625-0.09375-0.03125l-32.996-10.656c-0.78125-0.25391-1.5977-0.38672-2.4258-0.38672h-0.12891l-49.191 0.79297c-34.223-13.512-113.89-50.25-144.67-84.973z"/>
</svg>
