<?xml version="1.0" encoding="UTF-8"?>
<svg width="752pt" height="752pt" version="1.1" viewBox="0 0 752 752" xmlns="http://www.w3.org/2000/svg">
 <path d="m189.88 405.36c17.996-17.996 47.832-31.258 84.77 5.2109l36.938 31.73c5.6836-6.6289 12.312-11.84 17.051-14.68l-3.7891-53.988-32.203-140.65c-1.8945-7.1055-0.94531-14.68 2.8398-20.836 3.7891-6.6289 9.9453-11.367 17.051-13.262 5.2109-1.4219 10.891-0.94531 15.629 0.47266-0.94531-6.1562 0.47266-11.84 3.3164-17.051 3.7891-6.6289 9.9453-11.367 17.051-13.262 15.156-3.7891 30.309 4.7344 34.57 19.891 0.47266 1.4219 42.148 154.86 45.465 165.75 2.3672 7.5781 6.1562 11.84 8.0508 11.84 0.94531 0 4.7344-2.3672 8.9961-14.68 1.8945-5.6836 26.52-95.664 35.52-130.23 4.2617-14.68 19.418-23.68 34.57-19.891 7.5781 1.8945 13.262 6.6289 17.051 13.262 3.7891 6.6289 4.7344 13.734 2.8398 20.836l-7.5781 26.52c4.7344-1.4219 9.9453-1.8945 15.629-0.47266 7.5781 1.8945 13.262 6.6289 17.051 13.262 3.7891 6.6289 4.7344 13.734 2.8398 21.312l-33.625 108.45c-0.94531 11.367-8.5234 116.03-35.047 179.96-0.94531 2.8398-3.7891 4.2617-6.6289 4.2617-0.94531 0-1.8945 0-2.8398-0.47266-3.7891-1.4219-5.2109-5.6836-3.7891-9.4727 26.52-63.934 33.625-175.23 34.098-176.17v-0.94531-0.94531l34.098-108.92c0.94531-3.3164 0.47266-7.1055-1.4219-10.418-1.8945-3.3164-4.7344-5.6836-8.5234-6.6289-7.5781-1.8945-15.156 2.3672-17.051 9.9453l-20.363 70.562-5.2109 18.941c-0.94531 3.3164-3.7891 5.2109-6.6289 5.2109-0.47266 0-1.4219 0-1.8945-0.47266-3.7891-0.94531-5.6836-4.7344-5.2109-8.5234 0-0.47266 0-1.4219 0.47266-1.8945l5.2109-17.523 33.625-120.76c0.94531-3.3164 0.47266-7.1055-1.4219-10.418-1.8945-3.3164-4.7344-5.6836-8.5234-6.6289-7.5781-1.8945-15.156 2.3672-17.051 9.4727-2.3633 6.1406-34.566 125.01-36.934 132.11-5.6836 16.574-12.785 24.625-22.73 24.625-10.891 0-17.996-11.367-21.312-21.785-3.3164-10.891-44.043-159.6-45.465-166.23-1.8945-7.1055-9.9453-11.84-17.051-9.4727-3.7891 0.94531-6.6289 3.3164-8.5234 6.6289-1.8945 3.3164-2.3672 6.6289-1.4219 10.418l37.414 141.13 8.0508 30.309c0.94531 3.7891-1.4219 7.5781-5.2109 8.5234-2.8398 0.94531-5.6836-0.47266-7.5781-2.3672-0.47266-0.94531-1.4219-1.8945-1.4219-2.8398l-8.0508-29.836-33.152-122.18c-1.8945-7.1055-9.4727-11.84-17.051-9.4727-3.7891 0.94531-6.6289 3.3164-8.5234 6.6289-1.8945 3.3164-2.3672 6.6289-1.4219 10.418l32.684 141.13v0.94531l4.2617 58.723v0.47266 0.94531 0.47266 0.94531s0 0.47266-0.47266 0.47266c0 0 0 0.47266-0.47266 0.47266 0 0 0 0.47266-0.47266 0.47266l-1.418 1.418s-0.47266 0.47266-0.47266 0.47266-0.47266 0-0.47266 0.47266c-3.7891 1.8945-15.156 9.4727-19.891 18.469-0.94531 1.8945-2.8398 3.3164-4.7344 3.7891-2.3672 0.47266-4.2617 0-6.1562-1.4219l-43.098-37.414c-21.785-21.312-41.203-25.102-59.672-10.418l36.938 34.57 37.887 34.57c0.47266 0.47266 0.94531 1.4219 1.4219 1.8945 0.47266 0.47266 34.098 65.828 66.301 95.191 2.8398 2.8398 3.3164 7.1055 0.47266 9.9453-1.4219 1.4219-3.3164 2.3672-5.2109 2.3672-1.8945 0-3.3164-0.47266-4.7344-1.8945-32.203-29.363-63.934-88.559-68.668-98.031l-36.938-34.098-42.621-39.781c-1.4219-1.4219-2.3672-3.3164-2.3672-5.2109-0.007813-1.4023 0.94141-3.293 2.3594-4.2422z"/>
</svg>
