<?xml version="1.0" encoding="UTF-8"?>
<svg width="752pt" height="752pt" version="1.1" viewBox="0 0 752 752" xmlns="http://www.w3.org/2000/svg">
 <g>
  <path d="m264.23 273.95-9.1133-4.5c-8.4609-4.2305-18.535-3.625-26.426 1.5859-7.8945 5.2109-12.406 14.238-11.84 23.68 0.56641 9.4414 6.125 17.863 14.586 22.094l1.3008 0.82812s1.0664 0.71094 1.6562 1.8945l38.359 62.395-1.4219 11.84c-0.82813 8.2891-1.3008 17.523-1.3008 27.348h0.003906c-0.92187 16.566 5.3828 32.719 17.285 44.281 4.918 4.4727 10.617 8.0039 16.812 10.418 1.3008 5.6836 0 28.414-23.68 82.168-3.2344 7.1172-2.543 15.406 1.832 21.887 4.3711 6.4844 11.797 10.23 19.609 9.8945 7.8125-0.33594 14.891-4.7031 18.695-11.539l18.59-33.27-0.003906 0.003906c0.03125 7.6133 3.0273 14.914 8.3555 20.352 5.3281 5.4414 12.566 8.5859 20.18 8.7734h4.6172c8.4961-0.050781 16.594-3.6055 22.375-9.8281l5.918-6.75h0.003906c4.2305-4.8867 3.7539-12.266-1.0664-16.574-4.8711-4.1523-12.16-3.6797-16.457 1.0664l-6.0391 6.75v-0.003907c-1.043 1.2695-2.6211 1.9727-4.2617 1.8945h-4.6172c-3.0742 0-5.5664-2.4883-5.5664-5.5625 0.046875-6.7812-2.9062-13.234-8.0664-17.633-5.1562-4.3984-11.996-6.2891-18.684-5.1758-6.6875 1.1172-12.539 5.1328-15.988 10.969l-13.496 23.68c11.25-24.027 18.453-49.75 21.309-76.129h6.75c6.5391-0.52344 11.414-6.2461 10.891-12.785-0.52344-6.5391-6.2461-11.418-12.785-10.895-10.637 0.55859-21.113-2.7656-29.48-9.3516-6.9414-7.1641-10.551-16.918-9.9453-26.875 0-8.9961 0-17.402 1.1836-24.746l1.8945-15.273c0.3125-2.6406-0.26953-5.3086-1.6562-7.5781l-39.781-65.234c-2.4492-4.6758-6.2422-8.5117-10.895-11.012l-1.4219-0.71094h0.003906c-1.5039-0.91406-1.9844-2.875-1.0664-4.3789 0.91406-1.5039 2.875-1.9805 4.3789-1.0664l9.9453 4.8555 38.832 37.77 0.003906-0.003906c-4.2031 4.9219-3.6758 12.305 1.1836 16.578 2.1445 1.832 4.8711 2.8398 7.6953 2.8398 3.418-0.035156 6.6562-1.543 8.8789-4.1445 11.246-13.852 31.73-20.125 63.695-20.125 16.207-0.76562 32.379 2.0664 47.359 8.2852 5.6484 1.9961 11.898-0.54688 14.555-5.918 2.6523-5.3672 0.87891-11.875-4.1367-15.156l28.414-62.75c1.1211-2.8125 1.1211-5.9453 0-8.7578l-5.918-16.93v-0.003907c-0.38672-0.82422-0.38672-1.7773 0-2.6016 0.42969-0.80078 1.2266-1.332 2.1328-1.4219 1.3789-0.23047 2.7422 0.5 3.3125 1.7734l15.512 35.52-9.8281 21.785c-1.6133 5.6367 1.1406 11.605 6.4727 14.035 5.3359 2.4297 11.645 0.58984 14.84-4.3281l11.84-26.52c1.3516-3.0547 1.3516-6.5352 0-9.5898l-16.34-40.371c-2.5469-6.1172-7.3008-11.055-13.32-13.828-6.0156-2.7734-12.855-3.1836-19.16-1.1484-6.3086 2.0352-11.617 6.3672-14.879 12.133-3.832 6.8047-4.4375 14.961-1.6562 22.258l4.3789 12.551-23.68 51.383v-81.93h0.003906c0.015625-2.4531-0.72656-4.8516-2.1328-6.8633l-23.68-34.453c-3.1016-4.6055-7.4258-8.2539-12.488-10.531-5.0625-2.2812-10.66-3.1016-16.164-2.375-9.9961 1.3359-18.66 7.5977-23.066 16.672s-3.9688 19.754 1.1641 28.438l12.789 21.664-1.0664 43.926-20.602-47.359c-1.0547-2.4219-2.8867-4.4219-5.2109-5.6836l-29.242-15.863-1.4219-0.71094c-6.5312-2.5586-13.77-2.6602-20.371-0.29297-6.6055 2.3711-12.125 7.0508-15.539 13.18-3.418 6.125-4.4961 13.285-3.0391 20.145 1.918 9.7461 8.7852 17.781 18.113 21.195l5.4453 2.1328 15.273 41.203-23.68-22.613v-0.003906c-1.9922-1.9805-4.2656-3.6562-6.75-4.9727zm94.715-83.824h0.003906c0.92969-2.0703 2.9414-3.4414 5.207-3.5508 2.4766-0.37109 4.9492 0.67969 6.3945 2.7227l21.43 31.613v84.652c-4.1445-0.59375-10.418-0.59375-15.984-0.59375h-2.3672l2.3672-78.023c-0.003906-2.1992-0.57422-4.3594-1.6562-6.2734l-14.207-23.68c-1.4922-1.9883-1.7227-4.6523-0.59375-6.8672zm-65.824 50.199-10.418-4.0273v0.003906c-1.7773-0.64062-3.0859-2.1719-3.4336-4.0273-0.42969-1.8867 0.15625-3.8594 1.5391-5.2109 1.4336-1.4023 3.5273-1.9062 5.4453-1.3008l24.746 13.379 29.48 69.023c-5.6445 1.1367-11.188 2.7227-16.578 4.7383l-24.387-65.711c-1.0977-3.0703-3.4102-5.5547-6.3945-6.8672z"/>
  <path d="m467.76 459.47c23.723-16.5 45.246-35.953 64.051-57.895 1.7656-2.1289 2.7305-4.8086 2.7227-7.5781v-31.73c-0.003906-2.875-1.0547-5.6523-2.957-7.8125l-23.68-26.402c-6.5273-7.1172-15.738-11.172-25.398-11.172-9.6562 0-18.867 4.0547-25.395 11.172-9.1484 10.383-12.281 24.758-8.2852 38.004 0.4375 1.2773 1.0781 2.4766 1.8906 3.5547l1.8945 2.7227-6.75 3.3164 0.003907-0.003907c-10.227-7.207-22.309-11.316-34.809-11.836-15.598-0.003906-30.566 6.1523-41.652 17.125-11.086 10.977-17.391 25.883-17.547 41.48 0 6.5352 5.3008 11.836 11.84 11.836s11.84-5.3008 11.84-11.836c0-9.4219 3.7422-18.457 10.402-25.117 6.6641-6.6602 15.695-10.402 25.117-10.402 9.5781 0.92188 18.613 4.8594 25.809 11.246 1.1836 1.0078 2.5508 1.7695 4.0273 2.25 1.9766 0.52344 4.0586 0.52344 6.0391 0 0.86328-0.082031 1.707-0.32422 2.4844-0.71094l25.809-12.906c3.0742-1.5469 5.3203-4.3555 6.1602-7.6953 0.78125-3.375 0.042969-6.9219-2.0156-9.707l-8.7617-11.84c-0.98438-4.8789 0.32422-9.9414 3.5547-13.734 1.9766-2.3672 4.9062-3.7344 7.9922-3.7344 3.082 0 6.0117 1.3672 7.9883 3.7344l20.836 22.969v22.852c-18.941 21.547-66.773 67.605-100.28 67.605l0.003906-0.003906c-6.5391 0-11.84 5.3008-11.84 11.84 0 6.5391 5.3008 11.84 11.84 11.84 3.7305-0.066407 7.4531-0.42188 11.129-1.0625-13.703 33.504-8.6133 71.762 13.379 100.52 2.2344 2.9023 5.6875 4.6094 9.3516 4.6172 4.3789-0.10547 8.3438-2.6211 10.301-6.5391 1.9609-3.9219 1.5977-8.5977-0.94531-12.168-2.0117-2.4844-44.043-60.027 13.852-106.79z"/>
 </g>
</svg>
